<svg width="1622.52" height="672.85" xmlns="http://www.w3.org/2000/svg" data-name="Layer 1">

 <g>
  <title>Layer 1</title>
  <path id="svg_1" fill="#115936" d="m387.9,450.63l3.49,0c26.87,0 53.75,0 80.62,-0.05a5.42,5.42 0 0 1 4.93,2.33a175.58,175.58 0 0 0 23.23,24.22c19.28,17.09 40.61,31.18 63.32,43.25a445.08,445.08 0 0 0 79.29,32.39a558,558 0 0 0 62.21,15.08q17.89,3.28 35.94,5.61c11.94,1.53 23.91,2.63 35.9,3.71c11.06,1 22.13,1.68 33.22,2.19c17.41,0.81 34.84,1 52.27,0.89c9,0 18.06,0 27.08,-0.3c12.13,-0.36 24.27,-0.66 36.38,-1.43c5.28,-0.33 10.57,-0.52 15.85,-0.86q11.64,-0.76 23.28,-1.65c6.1,-0.46 12.2,-0.94 18.3,-1.48c5.47,-0.49 10.94,-1 16.41,-1.6q9.9,-1 19.8,-2.1c6,-0.67 11.95,-1.36 17.92,-2.12q10.8,-1.38 21.58,-2.89c7.49,-1.05 15,-2.11 22.47,-3.28c8.19,-1.29 16.36,-2.7 24.54,-4c11.35,-1.89 22.66,-4 34,-6.19q21.06,-4.08 42,-8.74q31.42,-6.94 62.51,-15.26a1515.49,1515.49 0 0 0 151.34,-48.97q34,-13 67.26,-27.65a11.75,11.75 0 0 1 5.09,-1.13c5.18,0.09 10.37,0 15.56,0c0.69,0 1.38,0 2.35,0.06a4.12,4.12 0 0 1 -2,1.73c-7.73,4.64 -15.62,9 -23.6,13.22c-28.43,15 -57.68,28.26 -87.46,40.37a1337.22,1337.22 0 0 1 -127.65,44.31q-47.43,13.92 -95.66,24.73q-29.41,6.63 -59.07,12.12c-13,2.4 -26.1,4.71 -39.2,6.84c-12.27,2 -24.56,3.91 -36.89,5.57c-10.17,1.37 -20.34,2.79 -30.52,4.1c-10.79,1.39 -21.6,2.66 -32.4,4c-9.68,1.21 -19.37,2.26 -29.08,3.09c-11.16,1 -22.31,2 -33.48,2.84c-8.37,0.63 -16.77,0.95 -25.16,1.5c-12.32,0.82 -24.66,1.07 -37,1.58c-4.67,0.19 -9.34,0.18 -14,0.25c-18.36,0.26 -36.73,0.26 -55.09,-0.24c-11.3,-0.31 -22.6,-0.69 -33.89,-1.48c-7.55,-0.52 -15.11,-0.93 -22.66,-1.51c-5.79,-0.44 -11.57,-1 -17.35,-1.6c-6.6,-0.66 -13.2,-1.32 -19.79,-2.11s-13.38,-1.67 -20,-2.66q-10.92,-1.62 -21.79,-3.52c-37.65,-6.62 -74.54,-16 -110,-30.49a354.85,354.85 0 0 1 -56.76,-29.48c-19.36,-12.35 -34.62,-28.6 -47.1,-47.66a154,154 0 0 1 -19.66,-42.11c-0.25,-0.99 -0.5,-1.99 -0.88,-3.42z" class="cls-1"/>
  <path id="svg_2" fill="#1f9b54" d="m524.36,222.22c1.34,-0.83 2.29,-1.43 3.26,-2c16.33,-9.7 33.2,-18.37 50.31,-26.59a1131.36,1131.36 0 0 1 106.74,-44.42c43.42,-15.66 87.53,-29 132.24,-40.44q38,-9.69 76.36,-17.5c17.67,-3.59 35.38,-7 53.18,-9.92c12.38,-2 24.75,-4.11 37.15,-6c11.28,-1.68 22.6,-3.13 33.9,-4.62c8,-1.06 16,-2 24.08,-3c7.51,-1 15,-2 22.52,-2.86c6.8,-0.8 13.61,-1.45 20.42,-2.13q8.52,-0.86 17,-1.62c3.2,-0.29 6.41,-0.56 9.61,-0.78c7.45,-0.52 14.9,-1 22.36,-1.48c10.35,-0.6 20.71,-1.24 31.07,-1.66c20.11,-0.81 40.24,-1.35 60.37,-1.17c12.45,0.11 24.89,0.4 37.34,0.75q12.29,0.36 24.56,1.13c9.93,0.62 19.86,1.41 29.78,2.23c7.34,0.61 14.68,1.27 22,2.11c9,1 17.9,2.28 26.84,3.48c11.61,1.55 23.15,3.54 34.65,5.77c35.39,6.88 70,16.31 103.29,30.44a332.54,332.54 0 0 1 56.52,30.62c13,8.77 23.84,19.62 33.4,31.88a164,164 0 0 1 26.3,47.74c1,2.94 1.87,5.93 2.75,8.91c0.33,1.12 0,1.47 -1.21,1.51c-0.73,0 -1.46,0 -2.18,0q-40,0 -80,0c-4.15,0 -3,0.4 -5.37,-2.61a189.38,189.38 0 0 0 -23.1,-23.94c-19.51,-17.3 -41.13,-31.53 -64.14,-43.69a445.4,445.4 0 0 0 -77.58,-31.7a561.11,561.11 0 0 0 -61.57,-15.08q-16.37,-3.06 -32.85,-5.31c-10.17,-1.37 -20.37,-2.57 -30.6,-3.4c-8.58,-0.69 -17.15,-1.54 -25.74,-2.14c-6.72,-0.47 -13.47,-0.62 -20.2,-1c-7.87,-0.46 -15.76,-0.39 -23.64,-0.66c-12.45,-0.41 -24.9,-0.28 -37.35,-0.17c-8.82,0.07 -17.64,0.32 -26.45,0.61c-9,0.3 -18,0.63 -27,1.14c-11.29,0.64 -22.56,1.42 -33.84,2.23q-13,0.93 -26,2.1c-7.23,0.65 -14.45,1.46 -21.66,2.22c-6.4,0.68 -12.79,1.35 -19.18,2.12c-7.3,0.88 -14.6,1.86 -21.9,2.83c-6.68,0.89 -13.36,1.79 -20,2.76c-7.08,1 -14.16,2.1 -21.22,3.26q-11.81,1.94 -23.59,4.06c-10.51,1.9 -21,3.77 -31.49,5.85q-25.3,5 -50.44,10.89q-50.7,11.8 -100.37,26.91a1496.55,1496.55 0 0 0 -157.8,57.95c-3.05,1.32 -6.09,2.64 -9.12,4a7.75,7.75 0 0 1 -3.28,0.81c-6,0 -12,0 -18.06,0a5.84,5.84 0 0 1 -1.07,-0.42z" class="cls-2"/>
  <path id="svg_3" fill="#fade00" d="m161.51,415.26a1.4,1.4 0 0 0 -0.21,-1.71c-1.43,-1.35 -2.84,-2.73 -4.25,-4.11c-0.44,-0.43 -0.88,-0.88 -1.28,-1.35a0.63,0.63 0 0 1 0,-0.85c0.57,-0.6 1.15,-1.2 1.76,-1.76a173.68,173.68 0 0 1 24.49,-18.62a182.79,182.79 0 0 1 31.76,-16.35a178.23,178.23 0 0 1 35.93,-9.66a174.69,174.69 0 0 1 22.59,-2.1a131.26,131.26 0 0 1 17.38,0.9a92.29,92.29 0 0 1 22.37,5.05a67.88,67.88 0 0 1 26.69,17.17c0.71,0.76 1.39,1.55 2.08,2.32c5.47,6.11 7.9,13.53 9.08,21.45c2.19,14.66 -1.79,27.92 -9.37,40.32a78.38,78.38 0 0 1 -11.35,14.38c-0.56,0.58 -1.33,1.05 -1.17,2.05c-0.12,1.64 -1.4,2.5 -2.42,3.48a175.2,175.2 0 0 1 -91.31,46.34a163.07,163.07 0 0 1 -34.39,2.11a91.39,91.39 0 0 1 -18.74,-2.43c-1.07,-0.54 -2.32,-0.39 -3.42,-0.84c-2.3,-0.95 -4.74,-1.61 -6.81,-3.08c-0.66,-3 0.93,-5.21 2.32,-7.53c1.07,-0.8 2,-0.3 3,0.26a5.51,5.51 0 0 0 -2.69,-0.91c-13.14,-6.66 -22.37,-16.46 -24.61,-31.53c-1.33,-8.9 1.06,-17.32 4.69,-25.35c6.66,-14.76 17.48,-26.06 30.1,-35.87c24.61,-19.14 52.6,-30.06 83.3,-34.43a118.2,118.2 0 0 1 34.68,-0.18c1.11,0.64 2.43,0.22 3.58,0.7c0.94,0.33 1.95,0.35 2.36,0.53c-0.19,0 -0.92,-0.21 -1.65,-0.37a9.8,9.8 0 0 0 -3.22,-0.52a122.16,122.16 0 0 0 -19.64,-2.67a149.87,149.87 0 0 0 -62.25,9a178.37,178.37 0 0 0 -51.73,30.37c-1.6,1.33 -3,2.9 -4.5,4.29c-0.88,0.84 -1.64,2.01 -3.15,1.5z" class="cls-3"/>
  <path id="svg_4" fill="#115936" d="m21.02,147.02c4.77,1.49 7.89,4.81 9.82,9.27a44.15,44.15 0 0 1 2.72,10.82c1.41,9.06 1.4,18.18 1.26,27.31c-0.13,8.71 -0.89,17.38 -1.68,26.06c-0.68,7.43 -0.89,14.9 -0.88,22.37a183.49,183.49 0 0 0 1.34,23a73.05,73.05 0 0 0 2.48,12.16a35,35 0 0 0 6.45,12.31a25.92,25.92 0 0 0 18.89,9.5c1.44,0.11 1.79,-0.22 1.84,-1.76c0.13,-4.77 0.21,-9.54 0.34,-14.31c0.38,-13.78 0.69,-27.57 1.2,-41.35c0.37,-9.84 1,-19.67 1.58,-29.5c0.25,-4.56 0.52,-9.11 0.84,-13.66c0.52,-7.13 1.09,-14.26 1.64,-21.39c0.21,-2.79 0.46,-5.58 0.67,-8.37c0.73,-9.92 1.55,-19.84 2.68,-29.73c1.92,-16.78 4.37,-33.49 8.67,-49.86a120.59,120.59 0 0 1 5.61,-16.78a48.18,48.18 0 0 1 3.73,-7.16a18.59,18.59 0 0 1 3.68,-4.18a10.22,10.22 0 0 1 9.24,-2.45c1,0.22 2,0.25 3.07,0.37c2.45,0.45 3.54,2.39 4.62,4.28a64.41,64.41 0 0 1 5.95,15.62c3.69,13.9 5.23,28.1 6.24,42.41c0.87,12.4 1.94,24.79 2.82,37.2c0.75,10.54 1.45,21.09 2.16,31.63s0.89,20.92 1.7,31.35c0.05,0.72 0.12,1.45 0.11,2.17c-0.41,18.26 0.59,36.5 0.78,54.75c0.14,12.33 0,24.69 0.62,37c0.56,10.48 0,20.95 0.53,31.41c1.16,23.84 -0.15,47.71 0.69,71.55c0.8,22.51 -0.17,45 0.63,67.5c0.51,14.32 -0.19,28.65 0.67,42.92c0.63,10.46 -0.25,20.94 1,31.38a31.52,31.52 0 0 1 -0.53,11.11c0.52,4.94 1.07,9.88 1.56,14.82c0.13,1.36 -0.18,1.58 -1.6,1.36q-6.14,-0.93 -12.27,-1.9c-5.11,-0.8 -10.23,-1.6 -15.33,-2.42a10.7,10.7 0 0 1 -1.46,-0.45a5.68,5.68 0 0 1 -0.89,-3.56c0,-1.45 0,-2.91 0,-4.36l0,-507.07c0,-1.25 0.07,-2.5 0,-3.73c-0.06,-0.76 0.28,-1.85 -0.8,-2.1c-0.91,-0.21 -1.49,0.59 -2,1.21a24.63,24.63 0 0 0 -4.1,7.29c-4.43,11.64 -6.4,23.84 -7.73,36.12c-1.81,16.59 -3.74,33.17 -4.59,49.86c-0.72,14.08 -1.38,28.15 -1.84,42.24c-0.61,18.45 -0.73,36.91 -1.33,55.34c-0.52,16.19 -0.18,32.36 -0.44,48.54c-0.1,6.4 -0.26,7.06 -6.73,7.42c-12,0.66 -23.8,-0.52 -34.08,-7.29c-10.05,-6.52 -15.6,-16.35 -17.79,-27.93c-1.68,-8.87 -2.22,-17.88 -2.78,-26.9a280.55,280.55 0 0 1 -0.42,-29.85c0.74,-16.47 1.39,-32.94 1.15,-49.43c-0.08,-6 -1,-12 -0.63,-18c0.1,-1.41 -0.16,-2.95 0.92,-4.16z" class="cls-1"/>
  <path id="svg_5" fill="#009d4e" d="m21.02,147.02c0,2.9 0,5.81 0.1,8.71c0.06,2.58 -0.19,5.18 0.49,7.74a8.69,8.69 0 0 1 0.07,2.17q0,16.33 0,32.69a15.45,15.45 0 0 1 -0.46,5.24a1.57,1.57 0 0 0 -0.07,0.61c0.09,4.46 -0.8,8.86 -0.71,13.33c0.16,7.47 0,14.95 0.06,22.42a18.09,18.09 0 0 0 0.39,4.63a15.07,15.07 0 0 1 0.16,3.09c0.14,3.1 -0.27,6.23 0.58,9.29a3.13,3.13 0 0 1 0,0.62a140.66,140.66 0 0 0 1.79,16a44.72,44.72 0 0 0 4.53,14.12a42.62,42.62 0 0 0 14.94,16.31a22.64,22.64 0 0 0 6.91,2.74a88.32,88.32 0 0 0 11.2,2.41c3.88,0.48 7.8,1.12 11.75,0.77c1.95,-0.18 3.9,-0.41 5.85,-0.65c1,-0.12 1.42,-0.62 1.51,-1.67c0.06,-0.83 0,-1.66 0,-2.49q0,-21.48 0.1,-43a17,17 0 0 1 0.34,-4.32a12.78,12.78 0 0 0 0.17,-3.1q0.06,-12.3 0.11,-24.59a15.58,15.58 0 0 1 0.33,-4a11.16,11.16 0 0 0 0.19,-2.78c0,-4.87 0,-9.75 0.09,-14.63a25.89,25.89 0 0 1 0.46,-6.8a8.7,8.7 0 0 0 0.08,-2.17c0,-3 0,-6 0.07,-9a23.78,23.78 0 0 1 0.46,-6.18a12,12 0 0 0 0.1,-2.48c0.17,-4.13 -0.17,-8.27 0.54,-12.41a44.19,44.19 0 0 0 0.14,-6.52a12.87,12.87 0 0 1 0.49,-4.35a2.35,2.35 0 0 0 0.11,-0.92c-0.23,-4.47 0.48,-8.88 0.75,-13.32c0.22,-3.6 0.47,-7.21 1,-10.79c0.41,-2.65 0.36,-5.37 0.85,-8c0.66,-3.57 0.35,-7.21 1,-10.79c0.4,-2.22 0.42,-4.52 0.76,-6.78s0.39,-4.74 0.78,-7.08c0.68,-4.17 1.59,-8.31 2.29,-12.49a96.8,96.8 0 0 1 4.33,-16.48a34.43,34.43 0 0 1 4.5,-8.81a10.19,10.19 0 0 1 3.63,-2.85a0.9,0.9 0 0 1 1.29,0.86c0.06,1.14 0.06,2.29 0.06,3.43l0,497.77q0,8.71 0,17.44c0,1.14 -0.06,2.28 -0.1,3.42a21.48,21.48 0 0 0 -4.93,0.31c-8.16,1.34 -16.34,2.59 -24.51,3.85a13.33,13.33 0 0 1 -1.54,0.13c-0.53,0 -0.74,-0.34 -0.69,-0.79c0.08,-0.93 0.2,-1.85 0.34,-2.77q0.81,-5.21 1.64,-10.41a3.12,3.12 0 0 0 -0.16,-2.11a4.48,4.48 0 0 1 -0.73,-3.56a58,58 0 0 0 0.42,-10.86c-0.24,-17.11 0.59,-34.21 0.83,-51.31c0.15,-10.67 -0.12,-21.37 0.53,-32c0.69,-11 0,-22 0.64,-32.95c0.65,-10.37 0,-20.75 0.59,-31.08c0.94,-15.35 0,-30.7 0.65,-46c0.41,-9.34 0.43,-18.65 0.5,-28c0,-3.76 -0.2,-3.95 -3.9,-3.4a74.49,74.49 0 0 1 -38.5,-4.26a30.22,30.22 0 0 1 -15.27,-13.13c-6,-10 -8.79,-21 -10.57,-32.32c-2.59,-16.59 -2.59,-33.25 -1.59,-49.95c0.43,-7 0.37,-14.09 0.55,-21.13c0.26,-10.25 0.6,-20.52 0.94,-30.76s0.07,-20.32 1.14,-30.43a4.66,4.66 0 0 1 0.9,-2.91a10.48,10.48 0 0 1 8.71,-0.52z" class="cls-4"/>
  <path id="svg_6" fill="#008c40" d="m1386.83,396.77l-30.19,0a16.64,16.64 0 0 0 -1.87,0a2.86,2.86 0 0 1 -3,-1.63c-3.18,-5.22 -6.47,-10.38 -9.73,-15.56l-21.66,-34.52c-0.33,-0.52 -0.69,-1 -1,-1.58a2,2 0 0 0 -2,-1.14l-0.31,0c-1.63,0.13 -3.29,-0.29 -4.91,0.24c-0.76,1.58 -0.32,3.25 -0.33,4.87c0,9.86 0,19.72 0,29.57a55.37,55.37 0 0 0 0.56,9c0.64,3.72 2.91,5.83 6.41,6.78a27.15,27.15 0 0 0 6.17,0.7c1.21,0.05 1.38,0.28 1.4,1.51a7.26,7.26 0 0 1 -0.06,0.93a0.78,0.78 0 0 1 -0.8,0.76c-0.62,0 -1.24,0.06 -1.87,0.06l-49.49,0c-1.83,-0.06 -2.14,-0.44 -1.92,-2.27a1,1 0 0 1 1,-1a38,38 0 0 0 6.18,-0.61c4.2,-1 6.46,-3.36 7,-7.59a51.54,51.54 0 0 0 0.47,-7.13q0,-41.4 0,-82.8a51.31,51.31 0 0 0 -0.54,-7.44a8,8 0 0 0 -6.75,-7.15a28.15,28.15 0 0 0 -5.87,-0.65c-1.42,0 -1.58,-0.23 -1.56,-1.64s0.19,-1.48 1.4,-1.54c0.62,0 1.24,0 1.86,0q25.38,0 50.74,0a100.43,100.43 0 0 1 19.48,1.84c14,2.79 21.49,13.71 23.46,23.76a35.68,35.68 0 0 1 -0.59,17.24a27.75,27.75 0 0 1 -15.53,18c-1.59,0.74 -3.26,1.31 -4.91,1.93s-1.62,0.64 -0.69,2.12q8.09,12.92 16.22,25.81q5.22,8.28 10.51,16.54c0.84,1.3 1.74,2.58 2.7,3.8a13.15,13.15 0 0 0 2.31,2.51c3.82,2.92 7.41,3.76 11.77,1.17a16.34,16.34 0 0 0 5.39,-5.07a52.44,52.44 0 0 0 4,-7.36c3.58,-7.82 6.53,-15.91 9.72,-23.89c7,-17.61 14,-35.26 20.93,-52.89q5,-12.57 9.95,-25.15c0.31,-0.77 0.61,-1.54 1,-2.28a1.15,1.15 0 0 1 2,0c0.37,0.74 0.68,1.51 1,2.28q18.48,47.52 37,95a114.6,114.6 0 0 0 5.79,13.07c0.39,0.73 0.84,1.43 1.24,2.16a11.28,11.28 0 0 0 7.76,5.71c1.81,0.41 2,0.76 1.8,2.49a1,1 0 0 1 -1,1c-0.62,0.06 -1.24,0 -1.87,0l-46.69,0c-1.7,-0.06 -2.3,-0.94 -1.74,-2.63a1,1 0 0 1 0.64,-0.55a22.75,22.75 0 0 1 2.48,-0.09a17.26,17.26 0 0 0 5.21,-0.78c2.88,-0.9 4,-2.52 4,-5.52a12.08,12.08 0 0 0 -0.83,-4.25q-1.85,-5.11 -3.78,-10.2c-1.1,-2.9 -2.3,-5.77 -3.37,-8.69a1.66,1.66 0 0 0 -1.83,-1.3c-0.31,0 -0.62,0 -0.93,0l-32.38,0c-0.31,0 -0.62,0 -0.93,0a1.69,1.69 0 0 0 -1.91,1.22c-0.6,1.55 -1.22,3.08 -1.81,4.63c-1,2.61 -2,5.23 -3,7.84a31.55,31.55 0 0 0 -1.37,5.74a9.65,9.65 0 0 0 0,3.71c0.73,3.48 2.64,5.81 6.25,6.48c2,0.38 4.08,0.69 6.13,1c1.35,0.21 1.49,0.36 1.48,1.81c0,1.23 -0.22,1.5 -1.39,1.55c-0.83,0 -1.66,0 -2.49,0l-30.51,0.07z" class="cls-5"/>
  <path id="svg_7" fill="#009d4e" d="m134.16,571.97a3.78,3.78 0 0 1 -0.33,-2.12c0,-2 0,-3.94 -0.06,-5.91a25.84,25.84 0 0 0 -0.46,-6.5a10.2,10.2 0 0 1 -0.09,-2.48c0,-5.6 -0.05,-11.2 -0.09,-16.8a24.77,24.77 0 0 0 -0.43,-6.19a11.75,11.75 0 0 1 -0.09,-2.79q-0.06,-16.8 -0.11,-33.61a19.19,19.19 0 0 0 -0.35,-4.33a14.76,14.76 0 0 1 -0.16,-3.4l-0.12,-60.07a21.14,21.14 0 0 0 -0.39,-5.25a13.3,13.3 0 0 1 -0.11,-3.1q-0.06,-31 -0.11,-61.94a19.34,19.34 0 0 0 -0.4,-5.25a10.79,10.79 0 0 1 -0.12,-2.79q-0.06,-12.92 -0.1,-25.84a19.14,19.14 0 0 0 -0.39,-4.94a10.69,10.69 0 0 1 -0.13,-2.78q-0.06,-12.77 -0.1,-25.53a17.24,17.24 0 0 0 -0.39,-4.63a10.74,10.74 0 0 1 -0.13,-2.79q-0.06,-13.22 -0.11,-26.45a16.13,16.13 0 0 0 -0.37,-4.32a11.24,11.24 0 0 1 -0.14,-2.79q-0.1,-12.31 -0.1,-24.6a15,15 0 0 0 -0.36,-4.32a9.64,9.64 0 0 1 -0.16,-2.47c0,-2.28 0,-4.57 -0.07,-6.85a19.37,19.37 0 0 0 -0.44,-5.25a10.11,10.11 0 0 1 -0.14,-2.47c-0.12,-3.1 0.23,-6.23 -0.58,-9.29a1,1 0 0 1 0,-0.31c0.28,-5 -0.82,-9.9 -0.71,-14.88a9.49,9.49 0 0 0 -0.32,-3.08a7,7 0 0 1 -0.22,-1.84c-0.09,-2.69 0.1,-5.39 -0.61,-8c0.26,-4.37 -0.87,-8.66 -0.68,-13c0.07,-1.69 -0.63,-3.27 -0.57,-4.92c0.16,-4.15 -0.92,-8.23 -0.71,-12.39c-1.05,-3.62 -0.14,-7.45 -1.11,-11.09a11.32,11.32 0 0 1 -0.1,-2.48a17.44,17.44 0 0 0 -0.49,-5.24a3.23,3.23 0 0 1 -0.1,-1.24c0.26,-3.44 -0.61,-6.79 -0.75,-10.21a65.48,65.48 0 0 0 -1.27,-8.88c-1,-5.69 -2.08,-11.38 -3.62,-17a75.9,75.9 0 0 0 -3.47,-10.6c-1.52,-3.42 -3.15,-6.78 -6.05,-9.3c2.45,-1.14 4.67,-0.21 6.8,0.88a14.78,14.78 0 0 1 4.65,4.08a37.59,37.59 0 0 1 4.29,6.84a94.24,94.24 0 0 1 6.24,16.88a230.83,230.83 0 0 1 5.66,26.75c1.55,9.84 2.62,19.74 3.78,29.62c1.07,9.17 1.88,18.36 2.52,27.57c0.61,8.9 1.29,17.79 1.85,26.7c0.68,11 1.27,21.95 1.9,32.93q0.47,8.38 0.92,16.77c0,0.93 0,1.87 0,2.8c-0.23,0.22 -0.46,0.54 -0.76,0.51c-4,-0.32 -4.75,2.51 -5.71,5.48c-2.48,7.64 -2.8,15.47 -2.33,23.37c0.28,4.59 1,5.42 5.57,5.83c16,1.45 29.43,-3.44 39.53,-16.28c9.51,-12.1 13.77,-26.34 16.41,-41.18a196.56,196.56 0 0 0 2.52,-30.64c0.14,-7.15 0.05,-14.31 0,-21.47c-0.05,-16.17 -0.91,-32.29 -2.35,-48.4c-0.68,-7.63 -1.18,-15.29 -1.92,-22.92c-0.13,-1.31 -0.27,-2.72 0.84,-3.8c1.79,1 2.78,2.73 3.78,4.42a45.81,45.81 0 0 1 4.23,10.33a155.75,155.75 0 0 1 4.44,20.95c1.33,8.72 2.18,17.49 2.91,26.26a282,282 0 0 1 0.65,38.23a231.87,231.87 0 0 1 -4.81,37.6a144.56,144.56 0 0 1 -9.94,30.35a73.61,73.61 0 0 1 -7.8,13.42a49.06,49.06 0 0 1 -20.15,16.14a38.7,38.7 0 0 1 -22.54,2.48a6.65,6.65 0 0 0 -0.89,-0.06a4.12,4.12 0 0 0 -0.29,2.46q0.5,21.78 1,43.54c0.05,1.87 0.08,3.73 0.12,5.6c0.46,25.3 0.74,50.6 0.67,75.9c0,0.93 0,1.86 0,2.8a1,1 0 0 0 0.62,1c0.48,1.39 -0.48,2.34 -1,3.42c-4.32,8.58 -7.31,17.55 -7.4,27.25a40.36,40.36 0 0 0 7.21,23.62c0.59,0.87 1.75,1.59 1.13,3c-0.78,0.78 -0.45,1.76 -0.46,2.66c0,6.62 0,13.25 0,19.88q0.06,23.92 0.1,47.86c0,3.79 0.34,2.94 -2.87,4.64s-6.26,3.22 -9.38,4.84c-0.68,0.25 -1.51,0.52 -1.83,1.4z" class="cls-4"/>
  <path id="svg_8" fill="#115936" d="m12.33,147.54c0,2.79 0.28,5.59 -0.44,8.36a8.68,8.68 0 0 0 -0.11,2.17c0,3.83 0,7.67 -0.08,11.51a23.77,23.77 0 0 1 -0.42,6.19a8.23,8.23 0 0 0 -0.09,2.17c0,3.94 0,7.88 -0.09,11.82a21.46,21.46 0 0 1 -0.44,5.87a8.23,8.23 0 0 0 -0.09,2.17c0,3.42 0,6.84 -0.08,10.27c0,2.58 0.2,5.18 -0.48,7.73a8.69,8.69 0 0 0 -0.07,2.17c0,4.36 0,8.71 -0.09,13.07a15.09,15.09 0 0 1 -0.35,4a9.63,9.63 0 0 0 -0.18,2.47q0,12.45 0,24.89a11.88,11.88 0 0 0 0.36,3.7a6,6 0 0 1 0.19,1.85c0,5.39 1,10.68 1.78,16a103.78,103.78 0 0 0 5,19.8a55.65,55.65 0 0 0 7.13,13.72a28,28 0 0 0 12.87,9.85a67.26,67.26 0 0 0 16.45,4.29a64.64,64.64 0 0 0 14.24,0.68c3.7,-0.34 7.37,-1 11.05,-1.45a6.08,6.08 0 0 1 0.85,0a3.07,3.07 0 0 1 0.39,2.15c0,8.09 0.33,16.21 -0.16,24.27c-0.46,7.56 -0.33,15.11 -0.43,22.67s-0.06,14.93 -0.08,22.4a16.41,16.41 0 0 1 -0.36,4a11.71,11.71 0 0 0 -0.16,2.79q-0.06,12.43 -0.1,24.89a17.53,17.53 0 0 1 -0.34,4a13.25,13.25 0 0 0 -0.18,3.09c0,7.68 -0.06,15.36 -0.1,23a26.8,26.8 0 0 1 -0.45,6.8a10.75,10.75 0 0 0 -0.08,2.48q0,12.45 -0.1,24.9a17.65,17.65 0 0 1 -0.38,4.63a11.14,11.14 0 0 0 -0.14,2.78q-0.06,12.6 -0.1,25.21a15.74,15.74 0 0 1 -0.38,4.32a9.61,9.61 0 0 0 -0.14,2.47c0,4.46 0,8.92 -0.06,13.38c0,6.83 0.16,13.68 -0.68,20.48a52.93,52.93 0 0 1 -6.53,-3.56c-1.91,-1 -3.73,-2.24 -5.67,-3.23a2.82,2.82 0 0 1 -1.66,-3c0.08,-2.38 0,-4.77 0,-7.16c-0.07,-32.57 -0.26,-65.14 -0.19,-97.7c0.06,-27.91 0.42,-55.81 0.66,-83.71c0.07,-7.77 0.19,-15.55 0.29,-23.33c0,-0.62 0,-1.25 0,-1.87c0,-1.11 -0.18,-1.3 -1.19,-1.43c-1.54,-0.21 -3.09,-0.36 -4.63,-0.55a95.78,95.78 0 0 1 -20.86,-4.71a43.6,43.6 0 0 1 -21.81,-17.24a66.28,66.28 0 0 1 -9.3,-22.25a110.35,110.35 0 0 1 -2,-13.2c-0.75,-6.91 -1.06,-13.85 -1.49,-20.78c-0.14,-2.27 -0.14,-4.56 -0.25,-6.84c-0.75,-16.58 -0.6,-33.18 -0.43,-49.77q0.24,-23.19 0.43,-46.36a21.14,21.14 0 0 1 1.3,-7.62c1.9,-4.85 5.19,-8.34 10.45,-9.7z" class="cls-1"/>
  <path id="svg_9" fill="#1f9b54" d="m294.34,285.52l-9.65,0.06c-0.72,0 -1.45,0 -2.17,0c-2,0 -2.08,0.18 -1.42,1.89s1.39,3.46 2.08,5.19l2.52,6.4a5.49,5.49 0 0 1 -2.85,0.35l-30.18,0c-3.41,0 -3.11,-0.26 -3.11,3.25q0,24 0,47.91c0,0.83 0,1.66 0,2.49c0,1.66 -0.09,1.74 -1.79,1.75c-4.77,0 -9.54,0 -14.31,0a5.62,5.62 0 0 1 -0.92,-0.08a0.85,0.85 0 0 1 -0.75,-0.85c0,-0.93 -0.05,-1.86 -0.05,-2.79l0,-48.2c0,-3.88 0.31,-3.45 -3.54,-3.46q-14.93,0 -29.86,0l-3,0a1.57,1.57 0 0 1 0.05,-1.39q22.56,-55.17 45.17,-110.49c1.14,0.81 1.23,1.92 1.6,2.84q8.72,21.62 17.38,43.26q4.33,10.81 8.66,21.64c0.25,0.63 0.48,1.15 1.28,1c3.35,7.92 6.4,16 9.64,23.92c1.59,3.91 1.62,3.93 5.95,3.95c2.18,0 4.36,-0.09 6.53,0.05c1,0.1 2.39,-0.31 2.74,1.31z" class="cls-2"/>
  <path id="svg_10" fill="#008c40" d="m664.16,275.24a59.75,59.75 0 0 1 20.56,2.67a48.06,48.06 0 0 1 21,14a60.24,60.24 0 0 1 14.7,30.71a77.38,77.38 0 0 1 -1.94,35.69a63,63 0 0 1 -15.18,26.09a47.28,47.28 0 0 1 -25,13.69a62.21,62.21 0 0 1 -30.75,-1.24c-10.7,-3.21 -19.18,-9.61 -25.78,-18.58a64.55,64.55 0 0 1 -11.71,-27.81a77.92,77.92 0 0 1 1.31,-33.6a59.45,59.45 0 0 1 18.41,-29.66a46.83,46.83 0 0 1 29.08,-11.9a39.55,39.55 0 0 1 5.3,-0.06z" class="cls-5"/>
  <path id="svg_11" fill="#008c40" d="m597.1,335.68c0.13,11.88 -2,22.36 -6.79,32.24a59.1,59.1 0 0 1 -15.36,20.11a47.08,47.08 0 0 1 -21.11,10.08a62.3,62.3 0 0 1 -30.74,-1.28a48.85,48.85 0 0 1 -25.38,-18.06a64.92,64.92 0 0 1 -12.27,-29.55a77.12,77.12 0 0 1 1.39,-31.76a58.78,58.78 0 0 1 22.55,-33.33a44.11,44.11 0 0 1 22.09,-8.45a80.92,80.92 0 0 1 22,0.57a47.47,47.47 0 0 1 27.65,15.52a60.48,60.48 0 0 1 14.65,29.68a64.88,64.88 0 0 1 1.32,14.23z" class="cls-5"/>
  <path id="svg_12" fill="#115936" d="m294.34,285.52c-0.56,-0.65 -1.32,-0.48 -2,-0.48c-3.41,0 -6.82,0 -10.23,0a2.49,2.49 0 0 1 -2.72,-1.91c-3.12,-8 -6.39,-15.88 -9.58,-23.82a3.76,3.76 0 0 1 -0.31,-3c0.42,-1.16 0.8,-2.34 1.26,-3.49q15.62,-39.1 31.25,-78.19c0.46,-1.14 1,-2.27 1.46,-3.45c1.16,0.57 1.2,1.72 1.56,2.64q8.14,20.66 16.23,41.35q13,33.12 26,66.24a13.59,13.59 0 0 1 1.29,4c-1.14,0 -2.14,0.12 -3.13,0.12l-29.92,0c-3.31,0 -3.05,-0.22 -3.05,3q0,24.74 0,49.46c0,0.73 0,1.45 0,2.18c0,1.95 -0.06,2 -1.86,2c-4.77,0 -9.54,0 -14.31,0c-1.39,0 -1.6,-0.25 -1.65,-1.63c0,-0.83 0,-1.66 0,-2.49q0,-24.57 0,-49.15a7.88,7.88 0 0 0 -0.29,-3.38z" class="cls-1"/>
  <path id="svg_13" fill="#008c40" d="m989.46,396.77l-42,0c-0.73,0 -1.46,0 -2.18,0c-2,0.07 -2,-0.75 -1.72,-2.66a0.89,0.89 0 0 1 0.66,-0.52c0.93,-0.08 1.86,-0.09 2.79,-0.08a16,16 0 0 0 4.91,-0.7a8.24,8.24 0 0 0 5.77,-6c0.69,-2.44 0.46,-4.94 0.67,-7.41c0.07,-0.83 0,-1.66 0,-2.49q0,-40.47 0,-80.94c0,-2.17 0,-4.35 -0.14,-6.53c-0.2,-4.52 -2.67,-7.53 -7,-8.76a22.88,22.88 0 0 0 -6.17,-0.53c-0.51,0 -1.06,0 -1.42,-0.43a3.06,3.06 0 0 1 0.08,-2.36a1.35,1.35 0 0 1 0.81,-0.37c0.72,-0.06 1.45,0 2.17,0l82.49,0c3.48,0 3.18,-0.33 3.18,3.15q0,14.64 0,29.26c0,0.73 0,1.46 0,2.18s-0.44,0.88 -1,0.87c-0.41,0 -0.83,0 -1.24,0a0.9,0.9 0 0 1 -0.85,-0.75q-0.31,-1.36 -0.6,-2.73a53.94,53.94 0 0 0 -3.25,-10.7c-3.59,-8.11 -10,-12.46 -18.64,-13.69c-7.11,-1 -14.29,-0.56 -21.44,-0.6c-1,0 -1.25,0.26 -1.31,1.3c0,0.51 0,1 0,1.55l0,43c0,2.81 -0.12,2.77 2.68,2.74a19.8,19.8 0 0 0 6.11,-1a14.79,14.79 0 0 0 8.4,-7a35.94,35.94 0 0 0 3.8,-10.47a59.58,59.58 0 0 0 1.31,-8.29a1.91,1.91 0 0 1 2.82,-1.14a1.22,1.22 0 0 1 0.36,0.81c0.06,0.72 0.05,1.45 0.05,2.18l0,56.34c0,0.52 0,1 0,1.55c0,1.69 -0.38,2 -2,1.79a1.16,1.16 0 0 1 -1.15,-1.2a60.38,60.38 0 0 0 -1.83,-10.08a36.33,36.33 0 0 0 -3.26,-8.05c-2.55,-4.67 -6.28,-7.64 -11.72,-8.16c-1.45,-0.14 -2.89,-0.3 -4.33,-0.4c-0.74,0 -1.14,0.37 -1.16,1.12s0,1.66 0,2.49c0,10.38 0,20.75 0,31.13c0,3 0.17,6 0.43,9c0.32,3.67 2.7,6.28 6.35,6.55c6.83,0.51 13.66,0.65 20.42,-1a30.61,30.61 0 0 0 19.63,-14.97a52.26,52.26 0 0 0 5,-11.68a12,12 0 0 0 0.51,-1.79c0.23,-1.81 0.71,-1.9 2.57,-1.8a0.69,0.69 0 0 1 0.74,0.78c-0.07,1 -0.12,2.07 -0.25,3.1q-1.47,11.73 -3,23.45c-0.41,3.18 -0.81,6.37 -1.23,9.56c-0.13,1 -0.36,1.24 -1.37,1.29c-0.83,0 -1.66,0 -2.49,0l-41.96,0.09z" class="cls-5"/>
  <path id="svg_14" fill="#008c40" d="m758.71,277.02c8.2,0 16.4,-0.14 24.59,0a58.3,58.3 0 0 1 15.87,2.76a29.92,29.92 0 0 1 20.91,29.53a34.34,34.34 0 0 1 -3.13,14.46c-3.88,8 -10.26,13.13 -18.58,15.95a47,47 0 0 1 -9.41,2c-5.16,0.64 -10.35,0.6 -15.52,0.82c-0.63,0 -1.25,0 -1.87,0a1,1 0 0 0 -1,1c-0.05,0.61 0,1.24 0,1.86c0,11.21 0,22.41 0,33.61a42.8,42.8 0 0 0 0.41,6.51c0.64,4.11 3,6.36 7,7.29a33.62,33.62 0 0 0 5.56,0.58c1.43,0.09 1.55,0.24 1.54,1.68s-0.16,1.52 -1.63,1.58l-50.07,0a5,5 0 0 1 -1.23,-0.07c-0.26,-0.06 -0.65,-0.31 -0.67,-0.51a9.66,9.66 0 0 1 0,-2.15c0,-0.19 0.44,-0.44 0.7,-0.47a18.65,18.65 0 0 1 2.48,-0.14a15.86,15.86 0 0 0 4.6,-0.73a8,8 0 0 0 6,-6.77a50,50 0 0 0 0.55,-8.37q0,-40.77 0,-81.54a70.3,70.3 0 0 0 -0.49,-8.06a8.53,8.53 0 0 0 -6.83,-7.16a30.31,30.31 0 0 0 -5.87,-0.63c-1.2,0 -1.35,-0.22 -1.35,-1.5l0,-0.31c0,-1.09 0.23,-1.32 1.22,-1.36c0.83,0 1.66,0 2.49,0l23.65,0l0.08,0.14z" class="cls-5"/>
  <path id="svg_15" fill="#008c40" d="m1071.16,300.57a3.82,3.82 0 0 0 -0.47,2.5q0,36.42 0,72.84a31.41,31.41 0 0 0 0.71,7.41a12.67,12.67 0 0 0 12.16,10.12c0.52,0 1,0 1.56,0c1.62,-0.06 1.77,0.38 1.74,1.81c0,1 -0.28,1.37 -1.18,1.43c-0.62,0.05 -1.25,0 -1.87,0l-32.68,0c-2.1,0.05 -2.11,-0.39 -1.94,-2.49a0.8,0.8 0 0 1 0.83,-0.74a39.14,39.14 0 0 0 4.93,-0.65c4.43,-1 7.4,-3.51 8.65,-8a30.17,30.17 0 0 0 1.1,-8.29c0,-7.26 0,-14.53 0,-21.79q0,-30.34 0,-60.69a7.57,7.57 0 0 0 -1.62,-5.15c-1.36,-1.69 -2.57,-3.51 -4.08,-5.09a10.37,10.37 0 0 0 -6.17,-3.31c-0.83,-0.12 -1.64,-0.28 -2.46,-0.42c-1.22,-0.21 -1.23,-0.22 -1.26,-1.31c-0.06,-1.72 0.08,-1.9 1.93,-1.9c11.42,0 22.83,0 34.24,0a3,3 0 0 1 2.75,1.59q9.48,13.5 19,27l30.13,42.71c0.35,0.5 0.74,1 1.1,1.44c1,-0.25 0.62,-1 0.62,-1.54c0,-7.37 0,-14.74 0,-22.1q0,-13.69 0,-27.39a45.71,45.71 0 0 0 -0.75,-8.66a11,11 0 0 0 -9.54,-9.33c-1.22,-0.21 -2.46,-0.32 -3.7,-0.45c-1,-0.11 -1.16,-0.24 -1.18,-1.37c0,-1.64 0.1,-1.82 1.69,-1.82q15.87,0 31.75,0c0.51,0 1.19,-0.09 1.37,0.44a3.13,3.13 0 0 1 -0.06,2.42a1.22,1.22 0 0 1 -0.76,0.43c-1.3,0.32 -2.61,0.64 -3.93,0.89c-5,0.93 -7.33,4.28 -8.23,9a47.4,47.4 0 0 0 -0.66,9l0,96.49c0,0.93 0,1.87 0,2.8s-0.37,1 -1.18,1.1a2.56,2.56 0 0 1 -2.55,-1.36c-2.93,-4.15 -5.92,-8.27 -8.88,-12.4l-58.23,-81.14l-2.88,-4.03z" class="cls-5"/>
  <path id="svg_16" fill="#008c40" d="m931.83,295.01l0,17.76c0,0.62 0,1.24 0,1.87a1.06,1.06 0 0 1 -1.18,1.12c-0.31,0 -0.62,0 -0.93,0c-0.87,0 -1.28,-0.41 -1.47,-1.26a56.25,56.25 0 0 0 -2.51,-8.33a39.88,39.88 0 0 0 -12.61,-17.4a29.39,29.39 0 0 0 -37.3,0.57a37.23,37.23 0 0 0 -11,15.25a78,78 0 0 0 -5.05,25.18a119,119 0 0 0 0.7,20.5c1.11,8.56 2.77,17 6.82,24.74a34.19,34.19 0 0 0 4.75,6.91c5,5.64 11.47,8.4 18.9,9a35.65,35.65 0 0 0 26.53,-8.51a81.64,81.64 0 0 0 10.52,-11c0.39,-0.47 0.8,-0.93 1.22,-1.39a0.33,0.33 0 0 1 0.28,-0.1c0.17,0.09 0.44,0.23 0.44,0.36c0,1.76 0,3.52 0.07,5.29c0,0.83 -0.05,1.66 0,2.49a3.27,3.27 0 0 1 -1,2.52c-5.12,5.8 -10.83,10.86 -17.88,14.25a47.26,47.26 0 0 1 -15.81,4.28a63,63 0 0 1 -23.72,-1.92c-14.76,-4.14 -25.78,-13 -32.82,-26.63a67.46,67.46 0 0 1 -7.47,-35.47a69,69 0 0 1 13.47,-37.61a55.44,55.44 0 0 1 32.92,-21.95a50.84,50.84 0 0 1 27,1.14a86.68,86.68 0 0 1 9.57,3.69a47.1,47.1 0 0 0 6.1,2.29c2.54,0.73 4.45,-0.2 6,-2.13a10.23,10.23 0 0 0 1.93,-4.86c0.08,-0.52 0.14,-1.07 0.75,-1.23a3.1,3.1 0 0 1 2.41,0.16a1.16,1.16 0 0 1 0.33,0.81c0.06,0.73 0,1.45 0,2.18c0.05,5.81 0.04,11.62 0.04,17.43z" class="cls-5"/>
  <path id="svg_17" fill="#008c40" d="m469.84,294.98l0,17.44c0,0.72 0,1.45 0,2.17a1.06,1.06 0 0 1 -1.15,1.16l-0.63,0c-1.23,0 -1.41,-0.16 -1.74,-1.31c-0.63,-2.19 -1.17,-4.4 -1.89,-6.56a42.17,42.17 0 0 0 -6.83,-12.85c-4.58,-5.77 -10.26,-10 -17.47,-11.78c-9.59,-2.37 -18.29,-0.32 -26,5.89a36.78,36.78 0 0 0 -11.41,16a74.53,74.53 0 0 0 -4.43,19a113.2,113.2 0 0 0 2.63,38.9a50.92,50.92 0 0 0 4.6,12.18c2.83,5.21 6.57,9.56 11.91,12.36a28.67,28.67 0 0 0 10.67,3.19a35.54,35.54 0 0 0 26.48,-7.69a75.53,75.53 0 0 0 11.68,-12a8.47,8.47 0 0 1 1.07,-1.09c0.07,-0.06 0.4,0.05 0.5,0.17a0.88,0.88 0 0 1 0.13,0.57c0,2.49 0,5 0,7.47a3.17,3.17 0 0 1 -0.8,2.27c-6,6.72 -12.69,12.54 -21.29,15.76a51.7,51.7 0 0 1 -14.87,3a62.42,62.42 0 0 1 -23.33,-2.69a50.75,50.75 0 0 1 -30.47,-25.4a66.06,66.06 0 0 1 -7.62,-26.08c-1.48,-18.85 3.58,-35.75 15.49,-50.41a54.18,54.18 0 0 1 30.86,-19.16a51,51 0 0 1 28.85,1.84c3.12,1.1 6.14,2.49 9.23,3.7c1.54,0.6 3.12,1.11 4.69,1.64a4.78,4.78 0 0 0 4.88,-1.18a6.61,6.61 0 0 0 2.07,-3.05a28.29,28.29 0 0 0 0.78,-3a1.22,1.22 0 0 1 1.25,-1.11a7.34,7.34 0 0 1 1.24,0a1,1 0 0 1 0.94,1c0,0.73 0,1.45 0,2.18l-0.02,17.47z" class="cls-5"/>
  <path id="svg_18" fill="#008c40" d="m1228.44,334.12q0,21.94 0,43.88a71.27,71.27 0 0 0 0.47,7.44c0.4,3.76 2.67,5.93 6,7.25a12.61,12.61 0 0 0 4.88,0.76c0.73,0 1.46,0 2.18,0c1.26,0 1.4,0.2 1.44,1.46c0,1.55 -0.14,1.78 -1.73,1.79c-2.8,0 -5.6,0 -8.4,0l-41.08,0c-0.72,0 -1.45,0 -2.18,0c-1.93,0 -2.14,-0.28 -2,-2.15a1,1 0 0 1 1.18,-1.1l3.42,0a12.62,12.62 0 0 0 4.55,-0.93a8.27,8.27 0 0 0 5.19,-6.15a27.3,27.3 0 0 0 0.55,-5.56c0,-1 0,-2.07 0,-3.11l0,-89.93c0,-0.94 0,-1.87 0,-2.8c0,-0.77 -0.45,-1.11 -1.19,-1.09c-4,0.09 -8.07,-0.21 -12.1,0.46a17.11,17.11 0 0 0 -11.84,7.23a38.48,38.48 0 0 0 -6,14.89c-0.08,0.4 -0.1,0.82 -0.17,1.23c-0.29,1.55 -0.49,1.72 -2,1.7c-1.23,0 -1.43,-0.18 -1.44,-1.46c0,-4.57 0,-9.13 0,-13.69l0,-14.63c0,-0.62 0,-1.25 0.07,-1.86a0.83,0.83 0 0 1 0.82,-0.77c0.73,0 1.45,0 2.18,0l89.3,0l1.87,0a0.91,0.91 0 0 1 1,0.94c0,0.62 0,1.24 0,1.86q0,13.54 0,27.07c0,0.32 0,0.63 0,0.94c0,1.46 -1.06,2.08 -2.48,1.51a1.17,1.17 0 0 1 -0.69,-0.94c-0.27,-1.11 -0.5,-2.23 -0.79,-3.33a58.47,58.47 0 0 0 -3.11,-9.1a21.93,21.93 0 0 0 -8.2,-9.53a13.87,13.87 0 0 0 -5.16,-2c-4.44,-0.81 -8.9,-0.39 -13.35,-0.48c-0.72,0 -1.19,0.3 -1.2,1.08s0,1.66 0,2.49l0.01,46.63z" class="cls-5"/>
  <path id="svg_19" fill="#008c40" d="m1518.1,336.77q0,-20.54 0,-41.08q0,-3.11 -0.21,-6.21c-0.34,-5.11 -2.83,-7.88 -7.87,-9a28.1,28.1 0 0 0 -5.26,-0.31c-0.51,0 -1.06,0 -1.42,-0.43a3.06,3.06 0 0 1 0.08,-2.36a1.35,1.35 0 0 1 0.8,-0.37c0.73,-0.06 1.46,0 2.18,0l50.11,0c0.62,0 1.24,0 1.86,0c1.08,0 1.26,0.24 1.31,1.27c0,0.31 0,0.62 0,0.93a0.85,0.85 0 0 1 -0.93,1c-1.25,0 -2.49,0.07 -3.73,0a14.51,14.51 0 0 0 -4.31,0.58a8.38,8.38 0 0 0 -6.56,7.43a54.22,54.22 0 0 0 -0.49,7.43q0,40 0,80a69.22,69.22 0 0 0 0.5,7.75a6.61,6.61 0 0 0 6.23,6.28a38.06,38.06 0 0 0 4.65,0.28c5,0 10,0.22 14.93,-0.16a22.64,22.64 0 0 0 16.22,-8.13a40.41,40.41 0 0 0 6.46,-10.92a109.45,109.45 0 0 0 4.36,-12.95c0.19,-0.7 0.42,-1.39 0.58,-2.1a1.08,1.08 0 0 1 1.08,-0.91a16.49,16.49 0 0 1 1.86,0c0.45,0 0.79,0.26 0.78,0.76s0,1.24 -0.09,1.86q-1.41,14.24 -2.81,28.47c-0.3,3.09 -0.55,6.19 -0.85,9.28c-0.13,1.39 -0.36,1.62 -1.69,1.67c-0.72,0 -1.45,0 -2.18,0l-86.82,0c-0.63,0 -1.25,0 -1.87,0c-1.65,-0.05 -2.32,-1.07 -1.7,-2.66a1,1 0 0 1 0.68,-0.51c0.92,-0.08 1.86,-0.09 2.79,-0.08a16.34,16.34 0 0 0 4.91,-0.7a8.13,8.13 0 0 0 5.67,-5.69a12.31,12.31 0 0 0 0.56,-3.36c0.06,-2.07 0.19,-4.15 0.19,-6.22q0.02,-20.5 0,-40.84z" class="cls-5"/>
  <path id="svg_20" fill="#115936" d="m196.7,101.96c0,2.17 -0.18,4.36 0.5,6.48a1.82,1.82 0 0 1 0.06,0.62c-0.22,3.74 0.48,7.44 0.81,11.14c0.32,3.48 0.12,7 1,10.47a1.65,1.65 0 0 1 0,0.31c-0.11,3.22 0.51,6.39 0.69,9.59c0.15,2.68 0.09,5.36 0.49,8a62.05,62.05 0 0 1 0.18,8.08a21.47,21.47 0 0 0 0.45,5.87a8.24,8.24 0 0 1 0.1,2.17q0,18.67 0,37.36a16,16 0 0 1 -0.47,5.24a3.17,3.17 0 0 0 -0.1,1.23c0.26,4.16 -0.34,8.28 -0.75,12.39c-0.43,4.3 -1.27,8.57 -2,12.84a115.78,115.78 0 0 1 -4.51,16.12a67.91,67.91 0 0 1 -12.57,22.69c-5.48,6.43 -12.19,11.21 -20.52,13.33a47.93,47.93 0 0 1 -9.45,1.71c-1.63,0.08 -3.25,0.6 -4.92,0.46a64.92,64.92 0 0 1 -8,-1.14a2.07,2.07 0 0 1 -1.88,-1.77c-0.25,-1.84 -0.88,-3.62 -0.83,-5.51c0.06,-2.18 0,-4.36 0,-6.54a48.72,48.72 0 0 1 2.28,-15c0.51,-1.79 1.15,-3.54 1.77,-5.3a1.92,1.92 0 0 1 2.08,-1.49c1.24,0.08 2.49,0.05 3.74,0.07a3,3 0 0 0 2.06,0.52a23.53,23.53 0 0 0 17.35,-6.34a31.63,31.63 0 0 0 7.85,-11.82a56.9,56.9 0 0 0 3.36,-13.22a187.89,187.89 0 0 0 0.89,-37c-0.29,-4.76 -0.47,-9.53 -0.69,-14.3q-0.43,-9.78 -0.84,-19.58c-0.15,-3.42 -0.39,-6.84 -0.43,-10.26a103.89,103.89 0 0 1 1.73,-21c0.31,-1.62 0.75,-3.23 1.16,-4.83c1.2,-4.63 4.06,-8.09 7.76,-10.95a11.53,11.53 0 0 1 5,-2.31c2.45,-0.36 4.83,-0.4 6.65,1.67z" class="cls-1"/>
  <path id="svg_21" fill="#115936" d="m148.62,490.56c-1.18,-1.79 -2.54,-3.45 -3.64,-5.32a44.52,44.52 0 0 1 -5,-14.19a38.06,38.06 0 0 1 -0.55,-8.31a56.42,56.42 0 0 1 1.61,-11a71.5,71.5 0 0 1 4.31,-12.22c0.92,-2.17 2.23,-4.17 3.36,-6.25a79.27,79.27 0 0 1 12.82,-18.06c0.4,-0.31 0.84,-0.58 1.22,-0.93c22.31,-20.73 48.1,-35 77.85,-41.86a144.16,144.16 0 0 1 18.39,-2.89a150.71,150.71 0 0 1 23.27,-0.36a107.3,107.3 0 0 1 20.85,3.07c0,1.18 -0.65,0.82 -1.28,0.62c-2.89,-0.22 -5.78,-0.51 -8.67,-0.64c-19.6,-0.93 -38.63,2.19 -57.22,8.26a167.28,167.28 0 0 0 -30.8,13.29c-13.14,7.46 -25.32,16.22 -35.71,27.28a80.6,80.6 0 0 0 -15.31,22.54a52.3,52.3 0 0 0 -4.58,18c-0.64,10.15 2.7,19 9.5,26.47a50.27,50.27 0 0 0 15.1,11.29c0.5,0.67 -0.2,0.83 -0.49,1.16a59,59 0 0 0 -2.77,7.49a4.2,4.2 0 0 1 -1.2,-0.25c-8.07,-4.46 -15.38,-9.82 -21.06,-17.19z" class="cls-1"/>
  <path id="svg_22" fill="#00804b" d="m180.99,511.53c2.57,0.3 5.15,0.57 7.71,0.9a151.21,151.21 0 0 0 19.84,1.12a163,163 0 0 0 55.91,-10.29a176.26,176.26 0 0 0 51.85,-30.17a129.35,129.35 0 0 0 9.62,-8.82c0.65,-0.66 1.36,-1.25 2.05,-1.88c1.88,1.62 3.78,3.23 5.64,4.88c1.07,0.95 1.06,1.12 -0.07,2.18c-1.74,1.63 -3.49,3.26 -5.3,4.82a185.67,185.67 0 0 1 -39.6,26.13a158.38,158.38 0 0 1 -22.64,8.56a180.79,180.79 0 0 1 -31.52,6.93a144.23,144.23 0 0 1 -32,0.64a105.67,105.67 0 0 1 -21.91,-4.36c-0.26,-0.47 -0.02,-0.62 0.42,-0.64z" class="cls-6"/>
  <path id="svg_23" fill="#78af8d" d="m180.99,511.53l-0.39,0.64a5.21,5.21 0 0 1 -2.9,-1.12a5.82,5.82 0 0 1 3.29,0.48z" class="cls-7"/>
  <path id="svg_24" fill="#21201f" d="m247.69,431.39c-1.1,0.06 -1.94,-0.15 -2.32,-1.43a41.55,41.55 0 0 0 -4,-9.1c-4.89,-8.37 -12.24,-12.67 -21.86,-13.21a27.57,27.57 0 0 0 -18.95,5.55a28,28 0 0 0 -8.15,10.81a45.82,45.82 0 0 0 -3.78,14.05a68,68 0 0 0 -0.12,17a41.4,41.4 0 0 0 4,13.64a27,27 0 0 0 16.75,13.88a32.66,32.66 0 0 0 21.64,-0.52a25.71,25.71 0 0 0 8.76,-5.79a69.44,69.44 0 0 0 6.41,-7.19c0.32,-0.41 0.62,-0.84 0.95,-1.23c0.63,-0.72 0.91,-0.74 1.86,-0.15c0.25,0.17 0.49,0.37 0.81,0.61c-6,10.76 -14.24,18.46 -26.62,20.69a45.53,45.53 0 0 1 -23.9,-1.87c-9.21,-3.32 -15.81,-9.71 -20.36,-18.23c-4.38,-8.19 -5.68,-17 -4.8,-26.2a45.09,45.09 0 0 1 8.28,-22.47a42,42 0 0 1 52.15,-12.94a24,24 0 0 0 2.55,1.11a3.79,3.79 0 0 0 4.67,-1.34a9.67,9.67 0 0 0 1.57,-3a1.41,1.41 0 0 1 1.69,-1c0.56,0 1,0.22 1.05,0.88c0.09,1 0.23,2.06 0.29,3.09c0.3,4.65 0.57,9.31 0.87,14c0.19,2.79 0.42,5.58 0.64,8.37a1.37,1.37 0 0 1 -0.08,1.99z" class="cls-8"/>
  <path id="svg_25" fill="#21201f" d="m248.9,428.77a36.92,36.92 0 0 1 7.21,-12.6a33.78,33.78 0 0 1 19,-11a34.13,34.13 0 0 1 22.69,2.76a16.59,16.59 0 0 0 2,0.88a3.47,3.47 0 0 0 4.52,-1.64c0.44,-0.7 0.67,-1.51 1.09,-2.22c0.3,-0.49 0.87,-0.49 1.4,-0.42a0.8,0.8 0 0 1 0.72,0.84c0.11,1.44 0.25,2.89 0.34,4.33q0.52,8.39 1,16.75a6.45,6.45 0 0 1 -0.07,1.24a0.61,0.61 0 0 1 -0.64,0.53c-0.28,0 -0.7,-0.12 -0.8,-0.31a27,27 0 0 1 -1.05,-2.56a31.17,31.17 0 0 0 -5.19,-9.5a20.56,20.56 0 0 0 -15.08,-7.61a25.86,25.86 0 0 0 -9.84,1c-6.41,2.11 -10.74,6.42 -13.54,12.44a41.61,41.61 0 0 0 -3.48,14.09a51.43,51.43 0 0 0 1,17a32.57,32.57 0 0 0 1.78,5.29c4,9.06 11.11,13.59 20.77,14.49a28.91,28.91 0 0 0 8,-0.36a22.92,22.92 0 0 0 12.89,-7.56c1.67,-1.85 3.17,-3.83 4.76,-5.74a1.09,1.09 0 0 1 1.62,0a0.93,0.93 0 0 1 0.14,1.35a43.54,43.54 0 0 1 -7.09,9a27.11,27.11 0 0 1 -11.72,6.76a36.51,36.51 0 0 1 -13.24,1.23a34,34 0 0 1 -13.95,-3.91c-8.72,-4.95 -14,-12.51 -16.29,-22.11a40.12,40.12 0 0 1 -0.21,-17.55c0.1,-0.51 0.14,-1 0.21,-1.54a9.05,9.05 0 0 1 1.05,-3.35z" class="cls-8"/>
  <path id="svg_26" fill="#5d9b43" d="m301.78,372.91c0.45,-0.17 1,-0.15 1.28,-0.62c1.13,-0.23 2.07,0.48 3.13,0.59c0.16,0.59 0,0.86 -0.65,0.69c-1.22,-0.16 -2.57,0.14 -3.76,-0.66z" class="cls-9"/>
  <path id="svg_27" fill="#b1bc2f" d="m173.65,500.48c0.16,-0.39 0.33,-0.77 0.49,-1.16a6.28,6.28 0 0 1 3.09,1.73l-3.58,-0.57z" class="cls-10"/>
  <path id="svg_28" fill="#a3b534" d="m305.58,373.57l0.65,-0.69c1,-0.08 1.69,0.5 2.6,0.81a3.72,3.72 0 0 1 -3.25,-0.12z" class="cls-11"/>
  <path id="svg_29" fill="#afa459" d="m248.9,428.77a9,9 0 0 1 -1.06,3.4l-0.15,-0.78l0.12,-2l1.09,-0.62z" class="cls-12"/>
  <path id="svg_30" fill="#fff" d="m1311.78,309.66l0,-22.37c0,-0.83 0,-1.66 0,-2.48c0,-0.59 0.29,-1 0.92,-1c5.67,0 11.37,-0.5 17,1.15a17.7,17.7 0 0 1 12.08,11.13a38.18,38.18 0 0 1 2.22,11.85a40.88,40.88 0 0 1 -1,12a21.13,21.13 0 0 1 -5.29,10a15.53,15.53 0 0 1 -6.8,4.17a32.45,32.45 0 0 1 -4.24,0.95a81.57,81.57 0 0 1 -13.61,0.82c-0.74,0 -1.18,-0.34 -1.21,-1.1s0,-1.65 0,-2.48l-0.07,-22.64z" class="cls-13"/>
  <path id="svg_31" fill="#fff" d="m1432.94,316.09c5.18,13.41 10.28,26.5 15.4,39.9l-31,0a2.24,2.24 0 0 1 0.17,-2c6.11,-16.29 14.06,-35.88 15.43,-37.9z" class="cls-13"/>
  <path id="svg_32" fill="#fff" d="m692.97,336.77c0,3.52 0.13,7 0,10.57a86.3,86.3 0 0 1 -4.32,25a39.51,39.51 0 0 1 -7,12.75a19.41,19.41 0 0 1 -10.6,6.68c-9.34,2.13 -18.3,-0.57 -24,-9a50.46,50.46 0 0 1 -7,-16.84a117.72,117.72 0 0 1 -2.81,-24c-0.14,-5 0,-9.93 0.21,-14.89a92,92 0 0 1 3.84,-23.87a40.81,40.81 0 0 1 8.08,-14.93c9,-10.28 25.3,-9.07 33.09,0.84a43.63,43.63 0 0 1 6.64,12.94a70.59,70.59 0 0 1 3.13,15.5a134.62,134.62 0 0 1 0.74,19.25z" class="cls-13"/>
  <path id="svg_33" fill="#fff" d="m512.78,337.65a156.19,156.19 0 0 1 1.4,-22.09a69.24,69.24 0 0 1 4.41,-16.79a39.52,39.52 0 0 1 6.28,-10.31c8.92,-10.48 25.58,-9.43 33.49,0.94a44.58,44.58 0 0 1 6.9,14.18a81.17,81.17 0 0 1 3,18.36c0.34,5.07 0.58,10.14 0.56,15.23a159.79,159.79 0 0 1 -1.15,20.16a64.43,64.43 0 0 1 -6.3,21.67a31.91,31.91 0 0 1 -4.55,6.66a20.08,20.08 0 0 1 -12.65,6.64a24.41,24.41 0 0 1 -8.94,-0.45a20.47,20.47 0 0 1 -12.39,-8.79a46.1,46.1 0 0 1 -6.11,-13.2a95.59,95.59 0 0 1 -3.29,-17.69c-0.49,-5.17 -0.42,-10.35 -0.66,-14.52z" class="cls-13"/>
  <path id="svg_34" fill="#fff" d="m770.58,309.86q0,-11.34 0,-22.69c0,-0.82 0,-1.65 0.07,-2.48a0.79,0.79 0 0 1 0.79,-0.78c4.84,-0.24 9.51,0.29 13.75,2.89a16.45,16.45 0 0 1 6.67,8.34a25.92,25.92 0 0 1 1.75,6.9a58.11,58.11 0 0 1 -0.45,17.61a24.37,24.37 0 0 1 -2.33,6.72a16.63,16.63 0 0 1 -13.55,9.15a21.92,21.92 0 0 1 -5.89,0a0.78,0.78 0 0 1 -0.76,-0.79c0,-0.83 -0.05,-1.66 -0.05,-2.49q-0.01,-11.18 0,-22.38z" class="cls-13"/>
  <path id="svg_35" fill="#009d4e" d="m178.6,196.23c0,-4.36 0,-8.72 0,-13.07a41,41 0 0 0 -0.42,-6.81a45.62,45.62 0 0 1 -0.17,-6.52a39.47,39.47 0 0 0 -0.45,-6.5a35.79,35.79 0 0 1 -0.18,-5.59a16,16 0 0 0 -0.43,-4.62a7.78,7.78 0 0 1 -0.15,-2.17c0,-7.78 -0.17,-15.56 0,-23.34a43.15,43.15 0 0 1 2.39,-14c1.27,-3.45 2.91,-6.65 5.82,-9c0.24,-0.2 0.44,-0.45 0.69,-0.62c0.92,-0.61 1.91,-1.74 3,-1c0.9,0.62 0.34,1.89 0.16,2.91a16.1,16.1 0 0 0 -0.23,2.77c0,8.51 -0.4,17 0.1,25.52c0.57,9.54 0.3,19.06 0.43,28.59s0.08,18.88 0.08,28.32c0,2.8 0.78,5.54 0.54,8.36c-0.13,1.54 0.1,3.1 -0.42,4.62a4.92,4.92 0 0 0 -0.12,1.54a114.36,114.36 0 0 1 -3,22.7a79.7,79.7 0 0 1 -7.09,20.13a41.94,41.94 0 0 1 -6,8.67a28.6,28.6 0 0 1 -15.49,8.61c-4.81,1.08 -9.69,0.7 -14.55,0.59a30.22,30.22 0 0 1 -4.28,-0.68a1.09,1.09 0 0 1 -0.88,-1.37a49,49 0 0 1 2.38,-9.62c0.41,-1.17 0.83,-1.37 2.15,-1.3a7.57,7.57 0 0 1 1.84,0.27a6.86,6.86 0 0 0 2.77,0.24a59.29,59.29 0 0 0 9.19,-1.3a20.66,20.66 0 0 0 7.6,-4.1a35.36,35.36 0 0 0 9.95,-14a59.29,59.29 0 0 0 4,-15.24a60.46,60.46 0 0 0 0.78,-10.51c-0.15,-4.15 0,-8.3 0,-12.45l-0.01,-0.03z" class="cls-4"/>
 </g>
</svg>